<mxfile host="app.diagrams.net" modified="2023-07-10T12:03:39.604Z" agent="Mozilla/5.0 (Windows NT 10.0; Win64; x64; rv:109.0) Gecko/20100101 Firefox/115.0" version="21.6.1" etag="XKIpZONQR1qlyxVYQY3s" type="github">
  <diagram name="Seite-1" id="AyVDhzs5wA8iKF448M9e">
    <mxGraphModel>
      <root>
        <mxCell id="0" />
        <mxCell id="1" parent="0" />
      </root>
    </mxGraphModel>
  </diagram>
</mxfile>
